<?xml version="1.0" standalone="no"?><svg xmlns="http://www.w3.org/2000/svg" viewBox="0 0 1440 320"><path fill="#C6d0de" fill-opacity="1" d="M0,96L30,85.3C60,75,120,53,180,53.3C240,53,300,75,360,69.3C420,64,480,32,540,42.7C600,53,660,107,720,133.3C780,160,840,160,900,186.7C960,213,1020,267,1080,256C1140,245,1200,171,1260,128C1320,85,1380,75,1410,69.3L1440,64L1440,0L1410,0C1380,0,1320,0,1260,0C1200,0,1140,0,1080,0C1020,0,960,0,900,0C840,0,780,0,720,0C660,0,600,0,540,0C480,0,420,0,360,0C300,0,240,0,180,0C120,0,60,0,30,0L0,0Z"></path></svg>