<?xml version="1.0" standalone="no"?><svg xmlns="http://www.w3.org/2000/svg" viewBox="0 0 1440 320"><path fill="#ffdcd6" fill-opacity="0.9" d="M0,288L30,282.7C60,277,120,267,180,229.3C240,192,300,128,360,117.3C420,107,480,149,540,138.7C600,128,660,64,720,69.3C780,75,840,149,900,149.3C960,149,1020,75,1080,58.7C1140,43,1200,85,1260,138.7C1320,192,1380,256,1410,288L1440,320L1440,0L1410,0C1380,0,1320,0,1260,0C1200,0,1140,0,1080,0C1020,0,960,0,900,0C840,0,780,0,720,0C660,0,600,0,540,0C480,0,420,0,360,0C300,0,240,0,180,0C120,0,60,0,30,0L0,0Z"></path></svg>