<?xml version="1.0" standalone="no"?><svg xmlns="http://www.w3.org/2000/svg" viewBox="0 0 1440 320"><path fill="#C6d0de" fill-opacity="1" d="M0,96L30,117.3C60,139,120,181,180,181.3C240,181,300,139,360,128C420,117,480,139,540,122.7C600,107,660,53,720,74.7C780,96,840,192,900,197.3C960,203,1020,117,1080,85.3C1140,53,1200,75,1260,96C1320,117,1380,139,1410,149.3L1440,160L1440,0L1410,0C1380,0,1320,0,1260,0C1200,0,1140,0,1080,0C1020,0,960,0,900,0C840,0,780,0,720,0C660,0,600,0,540,0C480,0,420,0,360,0C300,0,240,0,180,0C120,0,60,0,30,0L0,0Z"></path></svg>