<?xml version="1.0" standalone="no"?><svg xmlns="http://www.w3.org/2000/svg" viewBox="0 0 1440 320"><path fill="#C6d0de" fill-opacity="1" d="M0,128L30,128C60,128,120,128,180,138.7C240,149,300,171,360,149.3C420,128,480,64,540,80C600,96,660,192,720,218.7C780,245,840,203,900,154.7C960,107,1020,53,1080,58.7C1140,64,1200,128,1260,154.7C1320,181,1380,171,1410,165.3L1440,160L1440,0L1410,0C1380,0,1320,0,1260,0C1200,0,1140,0,1080,0C1020,0,960,0,900,0C840,0,780,0,720,0C660,0,600,0,540,0C480,0,420,0,360,0C300,0,240,0,180,0C120,0,60,0,30,0L0,0Z"></path></svg>